<svg class="svg-icon" style="width: 1em; height: 1em;vertical-align: middle;fill: currentColor;overflow: hidden;" viewBox="0 0 1024 1024" version="1.1" xmlns="http://www.w3.org/2000/svg"><path d="M933.12 490.666667c-27.306667-47.36-177.493333-285.013333-432.64-277.333334-235.946667 5.973333-372.48 213.333333-409.6 277.333334a42.666667 42.666667 0 0 0 0 42.666666c26.88 46.506667 170.666667 277.333333 421.973333 277.333334h10.666667c235.946667-5.973333 372.906667-213.333333 409.6-277.333334a42.666667 42.666667 0 0 0 0-42.666666zM521.386667 725.333333c-183.893333 4.266667-303.786667-153.173333-341.333334-213.333333 42.666667-68.693333 154.026667-209.066667 324.693334-213.333333 183.04-4.693333 303.36 153.173333 341.333333 213.333333-43.946667 68.693333-154.026667 209.066667-324.693333 213.333333z"  /><path d="M512 362.666667a149.333333 149.333333 0 1 0 149.333333 149.333333A149.333333 149.333333 0 0 0 512 362.666667z m0 213.333333a64 64 0 1 1 64-64 64 64 0 0 1-64 64z"  /></svg>